<?xml version="1.0" encoding="utf-8"?>
<!-- Generator: Adobe Illustrator 22.1.0, SVG Export Plug-In . SVG Version: 6.00 Build 0)  -->
<svg version="1.1" id="Layer_1" xmlns="http://www.w3.org/2000/svg" xmlns:xlink="http://www.w3.org/1999/xlink" x="0px" y="0px"
	 viewBox="0 0 237 44" style="enable-background:new 0 0 237 44;" xml:space="preserve">
<style type="text/css">
	.st0{fill:#646363;}
	.st1{fill:#F59D0F;}
	.st2{fill:#192E71;}
</style>
<title>Logo/Original</title>
<desc>Created with Sketch.</desc>
<g id="Symbols">
	<g id="Main-Navigation" transform="translate(-390.000000, -26.000000)">
		<g id="Logo_x2F_Original" transform="translate(390.000000, 26.000000)">
			<path id="Fill-1" class="st0" d="M80.6,27.4v-0.8c0-3.9-2-6.5-5.3-6.5c-3.3,0-5.4,2.9-5.4,6.5c0,3.4,1.8,6.7,6,6.7
				c1.4,0,3.1-0.5,4.3-1.4l-0.7-1.8c-1,0.6-2,0.9-3.1,0.9c-2.2,0-3.7-1.5-3.7-3.6H80.6z M77.8,25.4h-5.1c0-1.6,1-3.1,2.6-3.1
				C77,22.3,77.8,23.9,77.8,25.4z"/>
			<path id="Fill-3" class="st0" d="M93.2,27.4v-0.8c0-3.9-2-6.5-5.3-6.5c-3.3,0-5.4,2.9-5.4,6.5c0,3.4,1.8,6.7,6,6.7
				c1.4,0,3.1-0.5,4.3-1.4L92,30.2c-1,0.6-2,0.9-3.1,0.9c-2.2,0-3.7-1.5-3.7-3.6H93.2z M90.4,25.4h-5.1c0-1.6,1-3.1,2.6-3.1
				C89.5,22.3,90.3,23.9,90.4,25.4z"/>
			<path id="Fill-5" class="st0" d="M105.9,32.4V14.6h-2.7v5.8c-0.5-0.1-1-0.2-1.7-0.2c-3.8,0-6.6,2.8-6.6,6.7c0,4.3,3,6.4,6.6,6.4
				C103.4,33.3,104.9,32.9,105.9,32.4z M103.2,30.8c-0.4,0.1-1,0.2-1.5,0.2c-2.7,0-4.2-1.8-4.2-4.3c0-2.7,1.8-4.3,4-4.3
				c0.8,0,1.2,0.1,1.6,0.2V30.8z"/>
			<path id="Fill-7" class="st1" d="M50.3,38c-0.9,1.3-4.7,0.3-8.5-2.4c-3.8-2.7-6.1-6-5.2-7.3c0.9-1.3,4.7-0.3,8.5,2.4
				C48.9,33.3,51.2,36.6,50.3,38"/>
			<path id="Fill-9" class="st2" d="M24.1,25.3c1.2,0.8,2.2,1.6,3.8,2.7C46.5,18.1,48,9.4,45.6,5.2c-2.2-4-10.1-7.9-24.5-2.4
				C6.3,8.4-3.1,22.3,0.9,32.8c4,10.5,19.2,14.2,34.2,8.3l0,0l2.5-6.2c0,0-4.8-3.4-4.8-3.4c-12,4.7-23.9,2.3-26.8-5.3
				C3.2,18.5,10.5,8.5,22.6,3.6c12.2-4.9,28,0.7,3.1,16.9C24.8,23.1,24.5,24.1,24.1,25.3"/>
			<path id="Fill-12" class="st0" d="M69.4,33.1c-2.7-4.8-4.6-8-5.3-8.4v0c1.7-0.7,3.3-2.4,3.3-4.9c0-2.8-1.7-5.2-6-5.2H57v18.5h2.8
				v-7.5h1.6c0.7,0.2,2,2.8,4.8,7.5H69.4z M64.5,20c0,1.8-1.3,3.3-3.1,3.3h-1.6V17h1.6C63.6,17,64.5,18.4,64.5,20z"/>
			<polygon id="Fill-14" class="st0" points="134.5,33.1 131.4,28.3 128.3,33.1 125.4,33.1 129.8,26.6 125.8,20.5 128.8,20.5 
				131.7,25 134.6,20.5 137.5,20.5 133.3,26.7 137.5,33.1 			"/>
			<path id="Fill-16" class="st0" d="M147.3,33.1v-7.5c0-1.5-0.3-2.9-2-2.9c-1.2,0-2.4,0.8-3.2,1.6v8.9h-2.7V14.6h2.7v7.3
				c1.2-1,2.5-1.7,4.2-1.7c1.8,0,3.8,1,3.8,4.6v8.3H147.3z"/>
			<path id="Fill-18" class="st0" d="M153.3,33.1h2.7V20.5h-2.7V33.1z M156.4,16.6c0,0.9-0.8,1.7-1.7,1.7c-1,0-1.7-0.8-1.7-1.7
				c0-1,0.8-1.7,1.7-1.7C155.6,14.8,156.4,15.6,156.4,16.6z"/>
			<path id="Fill-20" class="st0" d="M170.3,26.3c0-4.1-2.7-6.1-5.7-6.1c-0.9,0-1.7,0.2-2.5,0.5v-6h-2.7v17.9
				c0.8,0.5,2.2,0.9,3.8,0.9C167,33.3,170.3,30.7,170.3,26.3 M167.6,26.5c0,2.5-1.6,4.5-3.8,4.5c-0.7,0-1.2-0.1-1.7-0.2V23
				c0.5-0.2,1-0.5,2-0.5C166.3,22.6,167.6,24.3,167.6,26.5"/>
			<path id="Fill-21" class="st0" d="M172.7,33.1h2.7V20.5h-2.7V33.1z M175.7,16.6c0,0.9-0.8,1.7-1.7,1.7c-1,0-1.7-0.8-1.7-1.7
				c0-1,0.8-1.7,1.7-1.7C175,14.8,175.7,15.6,175.7,16.6z"/>
			<path id="Fill-22" class="st0" d="M225.1,33.3c-1.9,0-3.3-0.5-4.3-1.1l0.9-2.1c0.8,0.6,1.9,1,3.2,1c1.3,0,2.3-0.6,2.3-1.5
				c0-2.5-5.6-1.6-5.6-5.9c0-2,1.6-3.6,4.4-3.6c1.5,0,2.5,0.3,3.4,0.7v2.3c-1-0.4-2-0.8-3.3-0.8c-1.1,0-1.9,0.4-1.9,1.3
				c0,2.3,5.7,1.6,5.7,5.9C229.9,32.3,227.7,33.3,225.1,33.3"/>
			<polygon id="Fill-23" class="st0" points="115,33.1 115,14.6 124.3,14.6 123.5,17 117.8,17 117.8,22.4 123.4,22.4 123.4,24.8 
				117.8,24.8 117.8,30.6 124.3,30.6 124.3,33.1 			"/>
			<path id="Fill-24" class="st0" d="M182.7,33.3c-2,0-2.9-1.2-2.9-2.8v-7.9h-2.1v-2.2h2.1v-2.8l2.7-0.9v3.7h3.8l-0.9,2.2h-3v6.9
				c0,1,0.4,1.5,1.2,1.5c0.8,0,1.6-0.4,2.1-0.8l0.8,1.8C185.4,32.9,183.9,33.3,182.7,33.3"/>
			<path id="Fill-25" class="st0" d="M188.9,33.1h2.7V20.5h-2.7V33.1z M191.9,16.6c0,0.9-0.8,1.7-1.7,1.7c-1,0-1.7-0.8-1.7-1.7
				c0-1,0.8-1.7,1.7-1.7C191.2,14.8,191.9,15.6,191.9,16.6z"/>
			<path id="Fill-26" class="st0" d="M199.9,20.2c-1.7,0-3.1,0.6-4.2,1.8c-1.1,1.2-1.8,2.9-1.8,4.9c0,2,0.7,3.8,1.8,5
				c1,1,2.4,1.5,4.1,1.5c1.7,0,3.2-0.6,4.3-1.7c1.1-1.2,1.7-2.9,1.7-4.9c0-1.9-0.6-3.6-1.7-4.8C203.2,20.8,201.7,20.2,199.9,20.2
				 M199.9,22.4c2.1,0,3.2,1.7,3.2,4.4c0,2.6-1.1,4.4-3.2,4.4c-2,0-3.2-1.8-3.2-4.4C196.7,24.2,197.8,22.4,199.9,22.4"/>
			<path id="Fill-27" class="st0" d="M216.2,33.1v-7.5c0-1.4-0.3-2.9-1.9-2.9c-1.2,0-2.4,0.7-3.3,1.5v8.9h-2.7V20.5h2.3l0.3,1.4
				c1.4-1.1,2.7-1.7,4.4-1.7c1.8,0,3.7,1.2,3.7,4.5v8.4H216.2z"/>
		</g>
	</g>
</g>
<g>
	<path class="st0" d="M233.5,11c-1.9,0-3.5,1.6-3.5,3.5s1.6,3.5,3.5,3.5c1.9,0,3.5-1.6,3.5-3.5S235.4,11,233.5,11z M233.5,17.6
		c-1.7,0-3-1.4-3-3s1.4-3,3-3c1.7,0,3,1.4,3,3S235.1,17.6,233.5,17.6z"/>
	<path class="st0" d="M235,13.8c0-0.7-0.6-1.3-1.3-1.3H233h-0.5v0.5v1.5v0.5v1.5h0.5v-1.5h0.6l1,1.5l0.4-0.3l-0.9-1.3
		C234.6,14.8,235,14.4,235,13.8z M233,13.1h0.8c0.4,0,0.8,0.3,0.8,0.8s-0.3,0.8-0.8,0.8H233V13.1z"/>
</g>
</svg>
