<?xml version="1.0" standalone="no"?>
<!DOCTYPE svg PUBLIC "-//W3C//DTD SVG 20010904//EN"
 "http://www.w3.org/TR/2001/REC-SVG-20010904/DTD/svg10.dtd">
<svg version="1.0" xmlns="http://www.w3.org/2000/svg"
 width="840.000000pt" height="560.000000pt" viewBox="0 0 840.000000 560.000000"
 preserveAspectRatio="xMidYMid meet">
<metadata>
Created by potrace 1.16, written by Peter Selinger 2001-2019
</metadata>
<g transform="translate(0.000000,560.000000) scale(0.100000,-0.100000)"
fill="#000000" stroke="none">
<path d="M5285 5183 c-11 -2 -30 -6 -42 -9 -40 -8 -25 -37 61 -123 l84 -84 65
6 c55 5 67 3 82 -13 15 -17 14 -21 -29 -79 -163 -222 -189 -504 -68 -751 20
-41 38 -78 40 -82 2 -4 -335 -9 -750 -10 -836 -3 -772 2 -854 -71 -85 -74
-111 -220 -58 -325 51 -103 152 -159 268 -150 70 6 110 24 167 75 l39 35 0
-141 0 -141 -201 0 -201 0 -34 -34 -34 -34 0 -456 0 -456 -179 0 c-140 0 -181
-3 -190 -14 -9 -11 -8 -18 4 -30 14 -14 46 -16 211 -16 l194 0 0 -495 0 -495
-590 0 -590 0 0 495 0 495 136 0 c74 0 144 5 155 10 23 13 25 36 3 44 -9 3
-128 6 -265 6 -277 0 -306 -5 -333 -59 -14 -26 -16 -93 -16 -496 0 -403 2
-470 16 -496 32 -64 -113 -60 2117 -59 1304 1 2049 5 2078 11 60 13 122 66
144 122 11 29 15 66 13 122 l-3 80 -92 3 -93 3 0 825 c0 887 1 871 -51 908
-20 13 -55 16 -226 16 l-203 0 0 205 0 205 63 0 c131 0 315 70 423 162 180
154 274 369 261 598 -10 184 -77 329 -212 465 -91 91 -174 144 -290 182 -71
24 -95 27 -220 27 -128 0 -147 -2 -220 -27 -89 -31 -145 -61 -221 -118 l-51
-37 -104 104 c-99 99 -106 104 -144 103 -22 -1 -49 -3 -60 -6z m959 -93 c202
-52 352 -175 442 -363 88 -186 84 -381 -11 -573 -102 -207 -309 -346 -537
-361 -88 -6 -88 -6 -88 18 0 13 -11 47 -24 75 l-24 51 87 0 c329 2 566 295
500 615 -40 193 -205 359 -396 398 -127 27 -282 -3 -390 -75 -29 -19 -56 -35
-61 -35 -4 0 -29 22 -56 49 l-48 48 39 32 c55 46 188 109 263 125 96 21 214
19 304 -4z m-49 -204 c75 -20 132 -52 193 -110 60 -56 89 -98 116 -166 104
-263 -66 -555 -349 -602 -134 -22 -269 20 -374 118 -107 99 -163 254 -140 392
11 71 56 177 87 205 19 17 21 16 64 -29 l45 -47 -31 -60 c-26 -51 -31 -70 -31
-136 0 -96 33 -169 105 -234 153 -137 407 -80 493 112 33 72 30 190 -5 257
-82 156 -278 220 -426 139 l-51 -27 -50 43 c-58 50 -56 57 28 102 98 54 225
70 326 43z m-521 -64 l28 -30 -25 -34 c-46 -60 -87 -161 -99 -244 -21 -144 27
-294 128 -403 30 -32 54 -61 54 -65 0 -3 -45 -6 -99 -6 l-99 0 -32 51 c-81
126 -120 289 -101 430 17 134 58 235 133 332 l30 37 26 -19 c15 -11 40 -33 56
-49z m514 -149 c51 -21 109 -80 128 -130 47 -122 -4 -254 -120 -316 -57 -30
-165 -30 -221 0 -113 60 -163 192 -117 312 9 24 22 46 28 48 5 2 29 -13 52
-32 37 -32 40 -39 32 -61 -31 -80 28 -164 115 -164 72 0 125 51 125 120 0 79
-59 126 -146 117 -47 -5 -54 -3 -76 21 -52 58 -52 59 -19 76 68 36 147 39 219
9z m-2059 -689 c137 -40 201 -195 133 -325 -73 -141 -269 -162 -373 -40 -85
98 -79 216 15 307 73 71 131 86 225 58z m1747 -11 c53 -28 107 -91 122 -142 9
-28 12 -335 12 -1150 l0 -1111 -835 0 -835 0 0 1113 c0 1247 4 1181 -71 1262
-21 23 -39 45 -39 49 0 4 361 5 803 4 l802 -3 41 -22z m-1586 -1553 l0 -850
-55 0 -55 0 0 341 c0 303 -2 344 -17 370 -28 46 -67 59 -187 59 l-106 0 0 453
c0 339 3 456 12 465 9 9 69 12 210 12 l198 0 0 -850z m2184 834 c14 -14 16
-105 16 -850 l0 -834 -215 0 -215 0 0 850 0 850 199 0 c168 0 202 -2 215 -16z
m-1654 -1768 c14 -44 78 -102 127 -115 49 -14 406 -14 456 0 50 14 101 60 121
109 l16 40 570 0 570 0 0 -63 c0 -81 -23 -125 -80 -154 l-44 -23 -1194 0
-1194 0 6 23 c3 12 6 66 6 120 l0 97 314 0 314 0 12 -34z m670 27 c0 -5 -9
-23 -20 -41 -34 -56 -64 -62 -302 -62 -194 0 -216 2 -245 20 -27 16 -63 65
-63 85 0 3 142 5 315 5 173 0 315 -3 315 -7z"/>
<path d="M5431 3205 c-70 -20 -108 -44 -161 -101 -53 -57 -82 -123 -84 -188
l-1 -51 153 -3 152 -3 0 -148 c0 -173 2 -177 77 -166 189 28 319 214 280 401
-40 190 -232 310 -416 259z m176 -50 c64 -19 136 -82 170 -149 38 -73 38 -179
0 -252 -32 -64 -103 -127 -164 -148 -77 -26 -73 -34 -73 138 0 131 -2 155 -16
160 -9 3 -78 6 -155 6 -155 0 -150 -3 -124 70 51 144 208 221 362 175z"/>
<path d="M4537 3119 c-40 -31 -54 -87 -32 -132 17 -36 65 -67 105 -67 53 0
110 57 110 110 0 29 -26 76 -52 94 -32 23 -100 20 -131 -5z"/>
<path d="M4764 3115 c-12 -31 7 -35 186 -35 181 0 195 3 182 38 -7 19 -361 17
-368 -3z"/>
<path d="M4537 2790 c-59 -47 -56 -143 7 -181 91 -56 197 20 167 121 -6 21
-23 48 -38 59 -34 28 -101 28 -136 1z"/>
<path d="M5063 2754 c-9 -24 12 -117 39 -170 26 -53 89 -114 148 -144 44 -22
135 -41 157 -33 11 4 13 44 11 182 l-3 176 -173 3 c-154 2 -173 1 -179 -14z
m309 -149 c-1 -60 -1 -120 -1 -133 -1 -19 -5 -21 -28 -16 -56 13 -111 42 -148
79 -40 41 -85 126 -85 163 0 23 0 23 131 20 l132 -3 -1 -110z"/>
<path d="M4560 2468 c-41 -22 -72 -78 -66 -117 7 -43 50 -89 92 -97 72 -13
143 58 130 130 -13 67 -99 113 -156 84z"/>
<path d="M4764 2435 c-12 -31 7 -35 186 -35 142 0 179 3 183 14 12 31 -16 36
-190 36 -143 0 -175 -3 -179 -15z"/>
<path d="M5536 2118 l-89 -112 -21 42 c-23 48 -39 52 -62 17 -21 -33 -27 -32
-47 10 -29 60 -46 47 -105 -78 l-53 -112 -20 33 c-12 17 -29 32 -38 32 -21 0
-101 -158 -101 -200 0 -20 -5 -30 -15 -30 -12 0 -15 28 -17 173 -3 164 -4 172
-23 172 -19 0 -20 -8 -23 -189 -2 -145 1 -191 10 -198 18 -11 939 -10 957 1
25 16 4 41 -34 41 l-35 0 -2 232 c-3 199 -5 233 -18 236 -10 2 -26 -18 -44
-55 l-29 -58 -23 50 c-13 28 -28 62 -33 78 -17 48 -41 33 -135 -85z m163 -104
c2 -28 32 -23 51 9 l20 32 0 -167 0 -168 -365 0 c-420 0 -390 -9 -334 102 l31
62 19 -25 c10 -13 19 -27 19 -31 0 -5 9 -8 20 -8 15 0 31 24 71 108 44 93 52
105 62 88 7 -10 20 -28 29 -40 l18 -21 25 29 c15 15 27 27 29 25 2 -2 11 -19
20 -37 10 -18 23 -32 31 -30 7 2 53 52 101 113 l88 109 32 -69 c18 -39 33 -75
33 -81z"/>
<path d="M2886 4000 c-149 -58 -221 -245 -150 -388 67 -134 218 -194 358 -142
101 38 176 138 179 239 2 43 0 46 -23 46 -21 0 -25 -6 -32 -42 -16 -94 -82
-172 -162 -194 -93 -25 -202 15 -254 93 -24 37 -27 51 -27 123 0 72 3 86 28
123 59 90 172 126 273 87 50 -19 74 -15 74 13 0 14 -15 26 -49 41 -63 27 -148
27 -215 1z"/>
<path d="M3153 3858 l-142 -142 -35 33 c-37 36 -69 38 -74 6 -2 -13 16 -39 54
-75 l56 -55 164 170 c90 94 163 177 161 185 -1 8 -11 16 -22 18 -14 2 -61 -39
-162 -140z"/>
<path d="M1585 3376 c-103 -36 -162 -72 -235 -145 -113 -113 -170 -252 -170
-411 0 -222 113 -406 318 -518 l50 -28 -60 -134 c-33 -74 -62 -137 -64 -139
-2 -2 -32 8 -66 22 -35 15 -70 27 -79 27 -11 0 -52 -81 -133 -261 -112 -248
-118 -265 -114 -315 10 -120 125 -204 238 -174 70 19 112 67 170 198 109 240
170 385 170 398 0 8 -30 27 -67 44 -37 17 -69 32 -71 34 -2 2 25 68 60 146 56
125 65 140 83 134 50 -16 221 -16 285 1 203 53 372 220 425 421 24 94 20 231
-11 322 -30 91 -97 195 -164 255 -60 54 -167 111 -246 132 -91 24 -234 20
-319 -9z m310 -41 c89 -24 173 -73 242 -143 231 -233 195 -623 -75 -806 -356
-242 -831 6 -832 434 0 293 231 529 520 530 47 0 112 -7 145 -15z m-457 -1400
c62 -27 112 -53 112 -56 0 -3 -49 -113 -108 -245 -92 -203 -113 -242 -142
-261 -89 -61 -220 4 -220 110 0 20 3 37 6 37 3 0 35 -14 71 -31 60 -29 67 -30
81 -15 15 14 15 18 1 31 -8 8 -42 25 -74 38 -41 16 -59 29 -57 39 1 9 43 106
93 216 76 167 94 200 108 194 9 -4 67 -29 129 -57z"/>
<path d="M1651 3234 c-210 -56 -347 -262 -314 -473 18 -119 86 -228 179 -287
88 -57 222 -92 240 -63 11 18 -14 33 -78 46 -257 52 -379 355 -230 573 75 110
180 165 317 165 69 0 89 -5 147 -32 191 -90 274 -307 189 -498 -27 -61 -111
-147 -171 -176 -48 -23 -64 -49 -40 -64 18 -11 128 56 176 107 25 27 60 79 77
116 30 63 32 74 32 178 0 107 -1 112 -37 186 -91 183 -292 275 -487 222z"/>
<path d="M2570 3200 c-13 -8 -15 -57 -18 -320 -2 -207 1 -316 8 -330 10 -19
21 -20 216 -20 l206 0 135 -130 c77 -74 144 -130 155 -130 28 0 38 40 38 156
l0 104 63 0 c36 0 68 5 75 12 9 9 12 95 12 324 0 271 -2 315 -16 328 -14 14
-67 16 -437 16 -248 0 -428 -4 -437 -10z m840 -335 l1 -285 -76 0 -75 0 0
-115 c0 -86 -3 -115 -13 -115 -7 0 -64 52 -127 115 l-115 115 -197 0 -198 0 0
285 0 285 399 0 399 0 2 -285z"/>
<path d="M3206 2206 c-51 -19 -92 -60 -112 -112 -14 -37 -15 -60 -6 -169 9
-116 12 -129 36 -154 20 -21 26 -37 26 -73 l0 -46 -97 -32 c-147 -48 -143 -45
-143 -145 0 -84 0 -85 25 -85 23 0 24 3 27 71 l3 71 99 36 100 35 26 -32 c23
-27 33 -31 75 -31 41 0 54 5 81 31 l31 30 99 -34 99 -34 3 -72 c3 -68 4 -71
27 -71 24 0 25 2 25 76 0 41 -4 84 -10 94 -6 12 -50 32 -120 55 l-110 37 0 45
c0 33 6 53 24 74 19 22 26 46 32 106 14 151 11 204 -15 246 -48 77 -144 113
-225 83z m135 -64 c59 -33 68 -73 54 -236 -8 -97 -16 -111 -89 -150 -35 -19
-37 -19 -71 0 -81 44 -84 49 -96 168 -5 61 -7 121 -4 136 9 40 46 79 90 95 43
15 74 11 116 -13z"/>
<path d="M7715 1659 c-16 -25 20 -29 241 -27 196 3 229 5 229 18 0 13 -34 15
-232 18 -161 2 -234 -1 -238 -9z"/>
</g>
</svg>
